<?xml version="1.0" encoding="UTF-8"?>
<svg width="100pt" height="100pt" version="1.1" viewBox="0 0 100 100" xmlns="http://www.w3.org/2000/svg">
 <path  style="fill:#FFFFFF;" d="m50 9.5703c-1.5078-0.007812-2.9883 0.03125-4.4922 0.19531-3.9805 0.42969-7.9336 1.4609-11.719 3.125-0.027343 0.011719-0.070312-0.011719-0.097656 0-14.836 6.3984-24.316 21.199-24.316 37.109h-9.375l14.062 18.75 14.062-18.75h-9.375c0-12.188 7.3828-23.645 18.75-28.516 11.629-5.1367 25.535-2.3984 34.473 6.543l6.6406-6.6406c-7.668-7.668-18.078-11.773-28.613-11.816zm35.938 21.68l-14.062 18.75h9.375c0 12.188-7.3828 23.645-18.75 28.516-11.629 5.1367-25.535 2.3984-34.473-6.543l-6.6406 6.6406c11.664 11.664 29.598 15.18 44.824 8.4961 0.023437-0.011719 0.070312 0.011719 0.097656 0 14.836-6.3984 24.316-21.199 24.316-37.109h9.375z"/>
</svg>
